HIERARCHY
ROOT Pelvis
{
	OFFSET 0.000000 0.000000 0.000000
	CHANNELS 6 Xposition Yposition Zposition Xrotation Yrotation Zrotation
	JOINT LeftUpLeg_virtual
	{
		OFFSET 0.000000 0.000000 0.000000
		CHANNELS 3 Xrotation Yrotation Zrotation
		JOINT LeftUpLeg
		{
			OFFSET 18.735201 -5.666702 -4.541200
			CHANNELS 3 Xrotation Yrotation Zrotation
			JOINT LeftLeg
			{
				OFFSET -0.021200 -31.938179 0.493100
				CHANNELS 3 Xrotation Yrotation Zrotation
				JOINT LeftFoot
				{
					OFFSET 0.021200 -31.938179 -4.336299
					CHANNELS 3 Xrotation Yrotation Zrotation
					JOINT LeftToeBase
					{
						OFFSET 0.943001 -26.722000 15.023500
						CHANNELS 3 Xrotation Yrotation Zrotation
						End Site
						{
							OFFSET 0 0 0
						}
					}
				}
			}
		}
	}
	JOINT RightUpLeg_virtual
	{
		OFFSET 0.000000 0.000000 0.000000
		CHANNELS 3 Xrotation Yrotation Zrotation
		JOINT RightUpLeg
		{
			OFFSET -18.735201 -5.666702 -4.541200
			CHANNELS 3 Xrotation Yrotation Zrotation
			JOINT RightLeg
			{
				OFFSET 0.018946 -31.938133 0.493100
				CHANNELS 3 Xrotation Yrotation Zrotation
				JOINT RightFoot
				{
					OFFSET -0.018946 -31.938126 -4.336299
					CHANNELS 3 Xrotation Yrotation Zrotation
					JOINT RightToeBase
					{
						OFFSET -0.943001 -26.722004 15.023500
						CHANNELS 3 Xrotation Yrotation Zrotation
						End Site
						{
							OFFSET 0 0 0
						}
					}
				}
			}
		}
	}
	JOINT Hips_virtual
	{
		OFFSET 0.000000 0.000000 0.000000
		CHANNELS 3 Xrotation Yrotation Zrotation
		JOINT Hips
		{
			OFFSET -0.000000 -0.000000 -0.000000
			CHANNELS 3 Xrotation Yrotation Zrotation
			JOINT Spine
			{
				OFFSET 0.000000 10.199997 -0.299500
				CHANNELS 3 Xrotation Yrotation Zrotation
				JOINT Spine1
				{
					OFFSET 0.000000 11.900002 -1.516600
					CHANNELS 3 Xrotation Yrotation Zrotation
					JOINT Spine2
					{
						OFFSET 0.000000 13.600006 -2.842500
						CHANNELS 3 Xrotation Yrotation Zrotation
						JOINT Neck_virtual
						{
							OFFSET 0.000000 0.000000 0.000000
							CHANNELS 3 Xrotation Yrotation Zrotation
							JOINT Neck
							{
								OFFSET 0.000000 9.624100 -2.890100
								CHANNELS 3 Xrotation Yrotation Zrotation
								JOINT Head
								{
									OFFSET 0.000000 14.068802 -1.351900
									CHANNELS 3 Xrotation Yrotation Zrotation
									End Site
									{
										OFFSET 0 0 0
									}
								}
							}
						}
						JOINT LeftShoulder_virtual
						{
							OFFSET 0.000000 0.000000 0.000000
							CHANNELS 3 Xrotation Yrotation Zrotation
							JOINT LeftShoulder
							{
								OFFSET 15.263000 10.923401 -0.547700
								CHANNELS 3 Xrotation Yrotation Zrotation
								JOINT LeftArm
								{
									OFFSET 25.438599 -2.830597 -13.032500
									CHANNELS 3 Xrotation Yrotation Zrotation
									JOINT LeftForeArm
									{
										OFFSET 29.960503 0.000000 0.000000
										CHANNELS 3 Xrotation Yrotation Zrotation
										JOINT LeftHand
										{
											OFFSET 27.849251 0.000000 0.000000
											CHANNELS 3 Xrotation Yrotation Zrotation
											End Site
											{
												OFFSET 0 0 0
											}
										}
									}
								}
							}
						}
						JOINT RightShoulder_virtual
						{
							OFFSET 0.000000 0.000000 0.000000
							CHANNELS 3 Xrotation Yrotation Zrotation
							JOINT RightShoulder
							{
								OFFSET -15.263000 10.923401 -0.547700
								CHANNELS 3 Xrotation Yrotation Zrotation
								JOINT RightArm
								{
									OFFSET -25.438599 -2.830597 -13.032500
									CHANNELS 3 Xrotation Yrotation Zrotation
									JOINT RightForeArm
									{
										OFFSET -29.960503 0.000000 0.000000
										CHANNELS 3 Xrotation Yrotation Zrotation
										JOINT RightHand
										{
											OFFSET -27.849251 0.000000 0.000000
											CHANNELS 3 Xrotation Yrotation Zrotation
											End Site
											{
												OFFSET 0 0 0
											}
										}
									}
								}
							}
						}
					}
				}
			}
		}
	}
}
MOTION
Frames: 12
Frame Time: 0.03333333
0.387593 79.734093 4.133722 0.000000 0.000000 0.000000 11.812293 3.008223 -1.245769 -56.035681 1.389092 5.039705 78.794961 7.352828 -0.693965 -33.464362 5.815964 -5.648666 0.000000 0.000000 0.000000 11.812293 3.008223 -1.245769 -49.926705 -15.112335 -5.472644 76.442357 -8.333852 -4.623733 -39.018429 -10.511855 4.629324 0.000000 0.000000 0.000000 11.812293 3.008223 -1.245769 0.000001 0.000000 0.000000 9.876421 1.422075 1.117378 7.603461 0.776395 0.053754 0.000000 0.000000 0.000000 7.594518 0.865696 0.034386 -4.516996 -0.590505 3.020030 0.000000 0.000000 0.000000 7.594518 0.865696 0.034386 3.557358 -26.212552 4.772374 -62.448706 -21.862949 -66.788219 -179.999773 -70.665656 -179.999773 0.000000 0.000000 0.000000 7.594518 0.865696 0.034386 1.196401 13.130267 10.955146 -58.753226 43.561191 51.473747 180.000005 73.676048 179.999991 0.000000 0.000000 0.000000 
0.384288 79.732231 4.131514 0.000000 0.000000 0.000000 11.800203 2.998198 -1.239632 -56.022291 1.388888 5.042355 78.799715 7.355635 -0.696706 -33.470201 5.818925 -5.653960 0.000000 0.000000 0.000000 11.800203 2.998198 -1.239632 -49.925780 -15.113238 -5.465289 76.451796 -8.334607 -4.636442 -39.019081 -10.514417 4.626971 0.000000 0.000000 0.000000 11.800203 2.998198 -1.239632 0.000000 0.000000 0.000000 9.880085 1.416574 1.124798 7.606522 0.771335 0.057330 0.000000 0.000000 0.000000 7.597684 0.860256 0.038070 -4.515447 -0.587830 3.010434 0.000000 0.000000 0.000000 7.597684 0.860256 0.038070 3.557354 -26.212552 4.772374 -62.440258 -21.827236 -66.761705 179.999950 -70.691310 179.999950 0.000000 0.000000 0.000000 7.597684 0.860256 0.038070 1.196369 13.156127 10.917910 -58.738800 43.556178 51.453219 -179.999554 73.727302 179.999568 0.000000 0.000000 0.000000 
0.381352 79.729950 4.129360 0.000000 0.000000 0.000000 11.790811 2.990602 -1.234752 -56.012964 1.389305 5.043137 78.804878 7.358458 -0.697022 -33.475526 5.823574 -5.658561 0.000000 0.000000 0.000000 11.790811 2.990602 -1.234752 -49.927003 -15.118777 -5.461957 76.461174 -8.334469 -4.648604 -39.021581 -10.513899 4.625177 0.000000 0.000000 0.000000 11.790811 2.990602 -1.234752 -0.000001 0.000000 0.000000 9.883292 1.410855 1.131250 7.609028 0.766256 0.060673 0.000000 0.000000 0.000000 7.600270 0.854941 0.041498 -4.515222 -0.585701 3.004012 0.000000 0.000000 0.000000 7.600270 0.854941 0.041498 3.557360 -26.212548 4.772374 -62.433502 -21.799054 -66.740319 -179.999868 -70.696959 -179.999868 0.000000 0.000000 0.000000 7.600270 0.854941 0.041498 1.196233 13.178830 10.886482 -58.723351 43.560351 51.421045 -179.999295 73.755265 179.999295 0.000000 0.000000 0.000000 
0.378977 79.727402 4.127470 0.000000 0.000000 0.000000 11.784670 2.985398 -1.230921 -56.008617 1.390645 5.041693 78.810322 7.361380 -0.694388 -33.479644 5.828707 -5.662733 0.000000 0.000000 0.000000 11.784670 2.985398 -1.230921 -49.930814 -15.126332 -5.463391 76.470675 -8.332517 -4.657755 -39.024682 -10.510399 4.623676 0.000000 0.000000 0.000000 11.784670 2.985398 -1.230921 0.000000 0.000000 0.000000 9.886053 1.404578 1.135867 7.610894 0.761037 0.063448 0.000000 0.000000 0.000000 7.602198 0.849653 0.044323 -4.516461 -0.584135 3.001116 0.000000 0.000000 0.000000 7.602198 0.849653 0.044323 3.557360 -26.212548 4.772374 -62.430456 -21.781198 -66.726358 -179.999691 -70.681584 -179.999677 0.000000 0.000000 0.000000 7.602198 0.849653 0.044323 1.195825 13.196537 10.865740 -58.712702 43.570764 51.388537 179.999623 73.756105 -179.999623 0.000000 0.000000 0.000000 
0.377124 79.724792 4.125978 0.000000 0.000000 0.000000 11.780858 2.981680 -1.227778 -56.006390 1.393306 5.038647 78.814673 7.364081 -0.688962 -33.483793 5.834012 -5.666703 0.000000 0.000000 0.000000 11.780858 2.981680 -1.227778 -49.935909 -15.133510 -5.468555 76.480080 -8.328989 -4.662834 -39.028941 -10.504704 4.622121 0.000000 0.000000 0.000000 11.780858 2.981680 -1.227778 -0.000001 0.000000 0.000000 9.888296 1.397927 1.138386 7.612148 0.755872 0.065494 0.000000 0.000000 0.000000 7.603492 0.844573 0.046390 -4.518646 -0.583219 3.001226 0.000000 0.000000 0.000000 7.603492 0.844573 0.046390 3.557355 -26.212553 4.772372 -62.433776 -21.772912 -66.719562 179.999909 -70.656244 179.999923 0.000000 0.000000 0.000000 7.603492 0.844573 0.046390 1.195111 13.207568 10.859375 -58.714082 43.584752 51.369279 179.999650 73.740204 -179.999677 0.000000 0.000000 0.000000 
0.375480 79.722305 4.124907 0.000000 0.000000 0.000000 11.777031 2.978154 -1.224909 -56.004204 1.397644 5.035286 78.818921 7.365745 -0.681387 -33.487936 5.839910 -5.670347 0.000000 0.000000 0.000000 11.777031 2.978154 -1.224909 -49.940270 -15.138862 -5.475370 76.489704 -8.324190 -4.664434 -39.033186 -10.497618 4.620264 0.000000 0.000000 0.000000 11.777031 2.978154 -1.224909 0.000000 0.000000 0.000000 9.889642 1.391497 1.139273 7.612829 0.751159 0.066892 0.000000 0.000000 0.000000 7.604220 0.840023 0.047794 -4.520562 -0.583028 3.003210 0.000000 0.000000 0.000000 7.604220 0.840023 0.047794 3.557355 -26.212548 4.772374 -62.444929 -21.769438 -66.717008 -179.999773 -70.639360 -179.999786 0.000000 0.000000 0.000000 7.604220 0.840023 0.047794 1.194091 13.211507 10.867397 -58.732168 43.600222 51.374368 -179.999841 73.729440 179.999841 0.000000 0.000000 0.000000 
0.373763 79.719940 4.124193 0.000000 0.000000 0.000000 11.770736 2.973693 -1.221880 -55.999393 1.403902 5.032689 78.823696 7.366152 -0.672659 -33.492454 5.847166 -5.673422 0.000000 0.000000 0.000000 11.770736 2.973693 -1.221880 -49.941585 -15.141985 -5.481729 76.499813 -8.319267 -4.664123 -39.038223 -10.490126 4.617996 0.000000 0.000000 0.000000 11.770736 2.973693 -1.221880 -0.000001 0.000000 0.000000 9.889731 1.386109 1.139388 7.613093 0.747402 0.067821 0.000000 0.000000 0.000000 7.604523 0.836420 0.048736 -4.520986 -0.583602 3.005664 0.000000 0.000000 0.000000 7.604523 0.836420 0.048736 3.557357 -26.212552 4.772372 -62.463248 -21.764727 -66.714419 -179.999950 -70.646299 -179.999950 0.000000 0.000000 0.000000 7.604523 0.836420 0.048736 1.192941 13.210138 10.884864 -58.767521 43.613541 51.408505 179.999609 73.744460 -179.999636 0.000000 0.000000 0.000000 
0.371652 79.717773 4.123857 0.000000 0.000000 0.000000 11.760384 2.967892 -1.218413 -55.989789 1.411282 5.031735 78.829324 7.364613 -0.664114 -33.497836 5.856305 -5.675940 0.000000 0.000000 0.000000 11.760384 2.967892 -1.218413 -49.938600 -15.143402 -5.486286 76.510297 -8.314842 -4.663497 -39.043335 -10.483149 4.615295 0.000000 0.000000 0.000000 11.760384 2.967892 -1.218413 0.000000 0.000000 0.000000 9.888812 1.382589 1.139512 7.613316 0.745060 0.068408 0.000000 0.000000 0.000000 7.604774 0.834140 0.049355 -4.519413 -0.584840 3.007601 0.000000 0.000000 0.000000 7.604774 0.834140 0.049355 3.557356 -26.212552 4.772374 -62.487113 -21.756077 -66.709679 179.999718 -70.676830 179.999732 0.000000 0.000000 0.000000 7.604774 0.834140 0.049355 1.191895 13.207259 10.903431 -58.816583 43.618442 51.468337 -179.999896 73.789539 179.999896 0.000000 0.000000 0.000000 
0.369113 79.715790 4.124037 0.000000 0.000000 0.000000 11.746490 2.961060 -1.214486 -55.975361 1.418178 5.032105 78.835519 7.361593 -0.657086 -33.505186 5.866531 -5.678114 0.000000 0.000000 0.000000 11.746490 2.961060 -1.214486 -49.931258 -15.144066 -5.488626 76.520850 -8.311233 -4.663533 -39.049308 -10.477592 4.612028 0.000000 0.000000 0.000000 11.746490 2.961060 -1.214486 0.000000 0.000000 0.000000 9.888017 1.381175 1.140015 7.614123 0.744189 0.068697 0.000000 0.000000 0.000000 7.605597 0.833243 0.049687 -4.516808 -0.586427 3.008578 0.000000 0.000000 0.000000 7.605597 0.833243 0.049687 3.557357 -26.212547 4.772374 -62.514857 -21.745803 -66.703887 179.999855 -70.709684 179.999868 0.000000 0.000000 0.000000 7.605597 0.833243 0.049687 1.191020 13.207207 10.915558 -58.874386 43.609375 51.544531 179.999882 73.844071 -179.999882 0.000000 0.000000 0.000000 
0.366151 79.714043 4.125042 0.000000 0.000000 0.000000 11.731564 2.953859 -1.210261 -55.958398 1.421774 5.032987 78.841598 7.357774 -0.652733 -33.513184 5.876305 -5.680808 0.000000 0.000000 0.000000 11.731564 2.953859 -1.210261 -49.921163 -15.144956 -5.488982 76.530494 -8.307917 -4.664641 -39.056432 -10.473970 4.608222 0.000000 0.000000 0.000000 11.731564 2.953859 -1.210261 0.000000 0.000000 0.000000 9.888967 1.381101 1.140988 7.616072 0.744131 0.068788 0.000000 0.000000 0.000000 7.607521 0.833119 0.049813 -4.514844 -0.587715 3.008431 0.000000 0.000000 0.000000 7.607521 0.833119 0.049813 3.557362 -26.212552 4.772374 -62.543953 -21.738397 -66.699536 -179.999773 -70.710373 -179.999773 0.000000 0.000000 0.000000 7.607521 0.833119 0.049813 1.190311 13.212606 10.917316 -58.936056 43.586589 51.625831 179.999882 73.873024 -179.999896 0.000000 0.000000 0.000000 
0.363059 79.712685 4.127199 0.000000 0.000000 0.000000 11.718648 2.946724 -1.205965 -55.940226 1.419745 5.033025 78.845600 7.354783 -0.651791 -33.523040 5.884494 -5.684988 0.000000 0.000000 0.000000 11.718648 2.946724 -1.205965 -49.911013 -15.146257 -5.488198 76.538553 -8.304557 -4.666973 -39.063812 -10.472055 4.604476 0.000000 0.000000 0.000000 11.718648 2.946724 -1.205965 0.000000 0.000000 0.000000 9.892778 1.380776 1.142631 7.619130 0.743620 0.068971 0.000000 0.000000 0.000000 7.610612 0.832554 0.050002 -4.514427 -0.587836 3.006817 0.000000 0.000000 0.000000 7.610612 0.832554 0.050002 3.557353 -26.212552 4.772373 -62.569860 -21.734949 -66.696681 -179.999718 -70.650562 -179.999718 0.000000 0.000000 0.000000 7.610612 0.832554 0.050002 1.189837 13.223385 10.907790 -58.996695 43.558285 51.702664 179.999882 73.849303 -179.999882 0.000000 0.000000 0.000000 
0.360138 79.711586 4.130594 0.000000 0.000000 0.000000 11.709522 2.939625 -1.201611 -55.923116 1.411411 5.031116 78.847909 7.353353 -0.654103 -33.533780 5.891287 -5.690951 0.000000 0.000000 0.000000 11.709522 2.939625 -1.201611 -49.903012 -15.147293 -5.486955 76.544844 -8.300883 -4.670477 -39.070495 -10.470742 4.601612 0.000000 0.000000 0.000000 11.709522 2.939625 -1.201611 0.000001 0.000000 0.000000 9.899109 1.378763 1.145281 7.622576 0.741564 0.069634 0.000000 0.000000 0.000000 7.614089 0.830442 0.050647 -4.514724 -0.586111 3.003286 0.000000 0.000000 0.000000 7.614089 0.830442 0.050647 3.557359 -26.212552 4.772374 -62.587264 -21.730708 -66.691702 179.999868 -70.528561 179.999868 0.000000 0.000000 0.000000 7.614089 0.830442 0.050647 1.189912 13.237431 10.886133 -59.051678 43.535544 51.769876 -179.999677 73.774123 179.999663 0.000000 0.000000 0.000000 
